<svg xmlns="http://www.w3.org/2000/svg" viewBox="0 0 1200 1200" role="img" aria-label="Rehearse">
  <rect width="1200" height="1200" rx="220" fill="#0a0a0a"/>
  <g fill="#22c55e">
    <path d="m1000.1 599.99c-29.566 0-55.094 16.211-68.941 39.996h-331.11v80.039h331.12c13.848 23.785 39.371 39.961 68.941 39.961 44.125 0 79.945-35.746 79.945-79.992-0.003906-44.16-35.824-80.004-79.949-80.004z"/>
    <path d="m1000.1 279.98c-29.566 0-55.094 16.211-68.941 40.008h-331.11v79.98h331.12c13.848 23.832 39.371 40.008 68.941 40.008 44.121 0 79.941-35.785 79.941-79.98 0-44.16-35.82-80.016-79.945-80.016z"/>
    <path d="m280 639.98h239.99v80.039h-239.99z"/>
    <path d="m280 799.99h239.99v80.016h-239.99z"/>
    <path d="m280 480h239.99v80.016h-239.99z"/>
    <path d="m280 319.99h239.99v79.98h-239.99z"/>
    <path d="m760.03 759.98c-29.566 0-55.055 16.246-68.941 40.008h-91.09v80.016h91.094c13.883 23.832 39.371 40.008 68.941 40.008 44.16 0 79.992-35.785 79.992-80.016-0.003906-44.16-35.836-80.016-79.996-80.016z"/>
    <path d="m840.05 439.98c-29.566 0-55.094 16.211-68.941 40.008h-171.11v80.016h171.11c13.848 23.797 39.371 39.973 68.941 39.973 44.137 0 79.957-35.746 79.957-79.98-0.003906-44.148-35.824-80.016-79.961-80.016z"/>
    <path d="m680.02 239.98c0-44.195-35.82-79.992-80.016-79.992h-400.02c-44.16 0-79.98 35.82-79.98 79.992v720.02c0 44.23 35.82 80.016 79.98 80.016h400.02c44.195 0 80.016-35.785 80.016-80.016h-480.04v-720.02z"/>
  </g>
</svg>
